#!OML:ASF F:\VICON\USERDATA\INSTALL\rory3\rory3.ASF
:FULLY-SPECIFIED
:DEGREES
113
root 0.206353 16.3506 -20.642 9.84551 -1.62674 -4.7317
lowerback -1.45764 3.0778 6.32577
upperback -1.66952 4.05396 -0.826795
thorax -0.410047 1.97349 -4.33174
lowerneck -19.7306 -1.35115 -1.25037
upperneck 33.1098 -0.954842 -1.43859
head 14.7829 -0.759828 -0.547795
rclavicle 3.32964e-014 -4.77083e-015
rhumerus -30.7564 -1.13981 -79.9262
rradius 37.4079
rwrist -16.4159
rhand -6.71344 12.3011
rfingers 7.12502
rthumb 19.1464 -16.7764
lclavicle 3.32964e-014 -4.77083e-015
lhumerus -53.9401 29.891 52.023
lradius 28.2288
lwrist -3.64661
lhand -2.37878 21.2602
lfingers 7.12502
lthumb 23.31 49.869
rfemur 12.2569 15.0889 31.6997
rtibia -2.22639e-014
rfoot -9.73342 -22.7092
rtoes -5.22974
lfemur -42.3351 -11.3894 -8.93523
ltibia 25.8861
lfoot -20.7994 22.5375
ltoes 6.71494
114
root 0.227337 16.3337 -20.4604 9.82796 -2.08801 -4.50823
lowerback -1.5901 2.50249 5.39193
upperback -0.87123 3.26341 -0.155364
thorax 0.303691 1.62212 -3.10886
lowerneck -23.203 -0.819064 -2.46262
upperneck 33.816 0.466016 -1.52395
head 15.9275 -0.354735 -0.133654
rclavicle -1.07344e-014 -1.47101e-014
rhumerus -28.8753 1.34091 -79.8623
rradius 37.6288
rwrist -16.8533
rhand -6.41517 9.41775
rfingers 7.12502
rthumb 19.4332 -19.6311
lclavicle -1.07344e-014 -1.47101e-014
lhumerus -54.2971 33.5972 51.5353
lradius 28.1909
lwrist -4.41915
lhand -2.93329 21.3608
lfingers 7.12502
lthumb 22.778 50.0361
rfemur 11.3811 15.3509 31.3331
rtibia 2.88223
rfoot -11.0351 -22.5346
rtoes -6.3635
lfemur -41.7446 -10.7513 -9.66407
ltibia 26.2402
lfoot -20.6633 22.5521
ltoes 6.09752
115
root 0.245275 16.3279 -20.2828 9.77026 -2.24232 -4.04925
lowerback -2.0417 2.82555 4.92907
upperback -0.950836 3.67964 -0.594595
thorax 0.513901 1.83498 -3.26821
lowerneck -22.3019 -1.02482 -1.99257
upperneck 33.5745 -0.0750001 -1.52335
head 15.5992 -0.509662 -0.314969
rclavicle -5.70015e-014 3.18055e-015
rhumerus -29.7352 0.347601 -79.9913
rradius 37.0587
rwrist -16.4682
rhand -7.02785 12.5317
rfingers 7.12502
rthumb 18.844 -16.5755
lclavicle -5.70015e-014 3.18055e-015
lhumerus -53.4049 32.9067 51.8272
lradius 28.0959
lwrist -4.32116
lhand -3.43051 21.1179
lfingers 7.12502
lthumb 22.3007 49.851
rfemur 11.057 15.266 30.8018
rtibia 4.68168
rfoot -11.1338 -22.4186
rtoes -9.03443
lfemur -41.2371 -10.3053 -10.6741
ltibia 26.6306
lfoot -19.3689 23.1578
ltoes 3.97037
116
root 0.257705 16.3391 -20.1026 9.71504 -2.27556 -3.64258
lowerback -1.88378 3.04015 4.58689
upperback -1.55778 3.9938 -1.05106
thorax -0.160449 1.96528 -3.56566
lowerneck -20.77 -1.21658 -1.74264
upperneck 33.5596 -0.607504 -1.24807
head 15.2362 -0.653784 -0.332956
rclavicle -8.15017e-015 -7.15625e-015
rhumerus -31.3805 -0.708449 -80.1742
rradius 36.5142
rwrist -15.7223
rhand -7.28579 12.3594
rfingers 7.12502
rthumb 18.5959 -16.7717
lclavicle -8.15017e-015 -7.15625e-015
lhumerus -53.2878 31.2873 52.0339
lradius 28.4189
lwrist -3.4796
lhand -3.75335 21.0177
lfingers 7.12502
lthumb 21.9908 49.7876
rfemur 11.0762 15.0699 30.3577
rtibia 5.85833
rfoot -11.3243 -22.1058
rtoes -10.5786
lfemur -40.8749 -10.32 -11.3148
ltibia 27.0767
lfoot -18.6722 23.6124
ltoes 4.9437
117
root 0.270559 16.3614 -19.9255 9.76217 -2.36116 -3.24791
lowerback -2.28795 3.0375 3.80568
upperback -1.4286 3.98293 -1.08044
thorax 0.148164 1.97319 -3.13278
lowerneck -21.044 -1.20972 -1.80049
upperneck 33.5448 -0.5638 -1.25766
head 15.2928 -0.64494 -0.32067
rclavicle -7.42958e-014 4.37326e-015
rhumerus -31.3471 -0.98233 -80.0795
rradius 35.828
rwrist -15.1674
rhand -7.42374 12.4617
rfingers 7.12502
rthumb 18.4632 -16.682
lclavicle -7.42958e-014 4.37326e-015
lhumerus -52.7293 31.7899 52.3563
lradius 28.4737
lwrist -3.13003
lhand -3.94293 20.9966
lfingers 7.12502
lthumb 21.8088 49.7878
rfemur 11.1811 14.9503 29.8375
rtibia 6.62909
rfoot -11.7231 -21.3751
rtoes -11.4051
lfemur -40.7161 -10.1174 -11.9815
ltibia 27.6116
lfoot -17.6128 23.6327
ltoes 5.37075
118
root 0.296025 16.3756 -19.7503 9.91388 -2.40283 -2.67774
lowerback -2.25851 3.12176 3.17605
upperback -1.81123 4.11184 -1.40444
thorax -0.270373 2.02705 -3.12582
lowerneck -20.7867 -1.24693 -1.67914
upperneck 33.7926 -0.720385 -1.11878
head 15.3499 -0.674561 -0.313145
rclavicle -1.0138e-014 -7.55382e-015
rhumerus -32.1581 -1.82684 -80.0096
rradius 34.9522
rwrist -14.5945
rhand -7.23976 12.7797
rfingers 7.12502
rthumb 18.6402 -16.3472
lclavicle -1.0138e-014 -7.55382e-015
lhumerus -52.4394 31.4522 52.3816
lradius 28.3717
lwrist -2.57195
lhand -4.42801 21.1477
lfingers 7.12502
lthumb 21.3429 49.9923
rfemur 11.1395 14.7853 29.0307
rtibia 7.48949
rfoot -11.8989 -20.7178
rtoes -11.5806
lfemur -40.6543 -9.83777 -12.9934
ltibia 28.1467
lfoot -16.2891 23.3713
ltoes 6.08116
119
root 0.311803 16.3866 -19.5493 9.8882 -3.02187 -2.4563
lowerback -2.43358 3.3657 2.76592
upperback -1.96027 4.43995 -1.64273
thorax -0.311921 2.19117 -3.12641
lowerneck -20.8383 -1.31134 -1.65181
upperneck 34.1238 -0.908452 -0.889929
head 15.5208 -0.717319 -0.260264
rclavicle -4.7112e-014 1.98785e-015
rhumerus -32.7202 -2.63606 -80.0583
rradius 34.0871
rwrist -14.1892
rhand -7.03193 12.7042
rfingers 7.12502
rthumb 18.8401 -16.4034
lclavicle -4.7112e-014 1.98785e-015
lhumerus -52.1274 31.1563 52.534
lradius 28.6373
lwrist -1.98306
lhand -4.74935 21.4396
lfingers 7.12502
lthumb 21.0342 50.3189
rfemur 11.3181 15.1915 28.7145
rtibia 8.40911
rfoot -11.3788 -20.3204
rtoes -12.1016
lfemur -40.1944 -9.56091 -13.4584
ltibia 28.7003
lfoot -15.6441 23.6579
ltoes 6.58021
120
root 0.329474 16.401 -19.3638 9.79818 -2.81694 -2.04742
lowerback -2.92791 3.0507 1.6285
upperback -1.6135 4.03229 -1.21776
thorax 0.182953 2.00584 -2.02981
lowerneck -21.5206 -1.27367 -2.32109
upperneck 34.2738 -0.542398 -0.946662
head 15.7585 -0.664774 -0.103827
rclavicle -7.45443e-016 1.78906e-014
rhumerus -32.2797 -2.39815 -79.5203
rradius 33.1473
rwrist -13.7823
rhand -6.97832 12.8347
rfingers 7.12502
rthumb 18.8917 -16.2679
lclavicle -7.45443e-016 1.78906e-014
lhumerus -52.1253 32.371 53.1078
lradius 28.9677
lwrist -1.89696
lhand -4.78989 21.5964
lfingers 7.12502
lthumb 20.9953 50.4799
rfemur 11.0321 14.7573 28.3257
rtibia 10.1158
rfoot -11.0033 -20.032
rtoes -13.4099
lfemur -39.7476 -9.28137 -14.4043
ltibia 29.1563
lfoot -14.4688 23.6655
ltoes 4.77447
121
root 0.358324 16.4241 -19.1642 9.69015 -2.79855 -1.57362
lowerback -2.27309 3.29956 1.40402
upperback -2.86761 4.37076 -1.78705
thorax -1.42734 2.14697 -2.56651
lowerneck -18.8777 -1.51352 -2.07694
upperneck 34.5814 -1.19825 -0.606077
head 15.2915 -0.854634 -0.10772
rclavicle -6.5102e-015 7.95139e-015
rhumerus -35.3392 -3.87332 -79.3974
rradius 32.6979
rwrist -13.143
rhand -7.04855 12.9751
rfingers 7.12502
rthumb 18.8241 -16.1341
lclavicle -6.5102e-015 7.95139e-015
lhumerus -53.0385 30.2872 52.4007
lradius 28.8356
lwrist -2.0273
lhand -4.5889 21.1763
lfingers 7.12502
lthumb 21.1884 50.0383
rfemur 10.923 14.3795 27.7354
rtibia 11.5417
rfoot -10.258 -19.6533
rtoes -15.031
lfemur -39.1623 -9.17907 -15.4055
ltibia 29.6594
lfoot -14.0732 23.7423
ltoes 3.35808
122
root 0.342561 16.4376 -19.0557 10.1091 -1.10731 -1.11012
lowerback -1.97059 2.56863 0.521275
upperback -2.94504 3.40259 -1.76706
thorax -1.77983 1.67431 -2.08764
lowerneck -19.9714 -1.37645 -2.07495
upperneck 34.9503 -0.966736 -0.590616
head 15.7246 -0.75748 -0.0696133
rclavicle -1.28216e-014 9.93923e-015
rhumerus -35.0036 -4.66053 -79.2633
rradius 31.8242
rwrist -12.5391
rhand -6.84959 12.8538
rfingers 7.12502
rthumb 19.0155 -16.2367
lclavicle -1.28216e-014 9.93923e-015
lhumerus -52.4957 31.7486 51.9205
lradius 28.2612
lwrist -3.02372
lhand -4.4836 20.3843
lfingers 7.12502
lthumb 21.2895 49.235
rfemur 9.80161 13.2686 27.6748
rtibia 13.2345
rfoot -9.64473 -20.0324
rtoes -14.6434
lfemur -39.6855 -8.81946 -16.4482
ltibia 30.0426
lfoot -12.0221 22.2982
ltoes 0.993395
123
root 0.376165 16.4672 -18.841 9.87692 -1.54683 -0.802859
lowerback -2.69936 2.53714 -0.170394
upperback -2.44303 3.37957 -1.57499
thorax -0.908001 1.68215 -1.45347
lowerneck -20.7309 -1.18267 -2.36657
upperneck 35.0846 -0.50327 -0.672402
head 15.9699 -0.618382 0.0296217
rclavicle -5.54112e-015 1.07344e-014
rhumerus -34.3974 -5.11009 -78.7497
rradius 30.7067
rwrist -11.9312
rhand -6.66329 13.0649
rfingers 7.12502
rthumb 19.1946 -16.0079
lclavicle -5.54112e-015 1.07344e-014
lhumerus -52.1833 33.2323 51.9189
lradius 27.9482
lwrist -3.66557
lhand -4.11147 19.5693
lfingers 7.12502
lthumb 21.6469 48.3792
rfemur 9.2676 13.2536 27.1517
rtibia 15.5771
rfoot -8.86505 -19.5413
rtoes -15.047
lfemur -38.648 -8.8543 -17.11
ltibia 30.3397
lfoot -12.8691 22.3929
ltoes 0.65453
